<svg width="35" height="35" viewBox="0 0 35 35" fill="none" xmlns="http://www.w3.org/2000/svg">
<path fill-rule="evenodd" clip-rule="evenodd" d="M17.5 35C27.165 35 35 27.165 35 17.5C35 7.83502 27.165 0 17.5 0C7.83502 0 0 7.83502 0 17.5C0 27.165 7.83502 35 17.5 35ZM20.2844 10.1125C21.6876 10.3498 23.0295 10.7671 24.2813 11.3317C24.2923 11.336 24.3013 11.3441 24.3067 11.3546C26.5249 14.5636 27.6196 18.185 27.2105 22.3529C27.2096 22.3617 27.2067 22.3702 27.2022 22.3779C27.1977 22.3855 27.1916 22.392 27.1843 22.3971C25.6965 23.4811 24.0362 24.3057 22.2734 24.8362C22.261 24.8399 22.2478 24.8397 22.2355 24.8356C22.2232 24.8315 22.2124 24.8237 22.2047 24.8133C21.8341 24.3052 21.497 23.7701 21.2024 23.208C21.1984 23.2002 21.1961 23.1917 21.1956 23.183C21.1952 23.1743 21.1966 23.1655 21.1997 23.1574C21.2029 23.1493 21.2078 23.1419 21.214 23.1358C21.2203 23.1297 21.2277 23.125 21.236 23.122C21.7702 22.924 22.2792 22.6859 22.7685 22.4045C22.7772 22.3993 22.7845 22.392 22.7897 22.3833C22.7949 22.3746 22.7979 22.3648 22.7984 22.3547C22.7989 22.3445 22.7969 22.3344 22.7925 22.3253C22.7881 22.3161 22.7816 22.3082 22.7734 22.3022C22.6695 22.2261 22.5672 22.1467 22.469 22.0666C22.46 22.0594 22.4492 22.0549 22.4377 22.0536C22.4263 22.0523 22.4147 22.0542 22.4044 22.0592C19.2289 23.5025 15.749 23.5025 12.5359 22.0592C12.5256 22.0545 12.5141 22.0528 12.5029 22.0542C12.4916 22.0557 12.481 22.0602 12.4721 22.0674C12.3739 22.1467 12.2708 22.2261 12.1677 22.3022C12.1596 22.3083 12.1532 22.3164 12.1489 22.3256C12.1447 22.3348 12.1428 22.345 12.1435 22.3551C12.1441 22.3652 12.1473 22.3751 12.1527 22.3837C12.158 22.3923 12.1655 22.3994 12.1743 22.4045C12.6653 22.6836 13.1774 22.9238 13.706 23.1229C13.7142 23.1257 13.7216 23.1304 13.7279 23.1364C13.7341 23.1424 13.739 23.1497 13.7422 23.1578C13.7453 23.1658 13.7468 23.1745 13.7463 23.1831C13.7458 23.1918 13.7435 23.2003 13.7395 23.208C13.4506 23.7704 13.1151 24.3077 12.7364 24.8141C12.7284 24.8241 12.7176 24.8316 12.7053 24.8353C12.6931 24.8391 12.6799 24.8392 12.6677 24.8354C10.908 24.3034 9.25033 23.4791 7.76414 22.3971C7.75708 22.3917 7.75119 22.385 7.74683 22.3772C7.74247 22.3695 7.73973 22.3609 7.73878 22.3521C7.39595 18.7471 8.09388 15.0962 10.6401 11.3529C10.6464 11.3431 10.6556 11.3354 10.6663 11.3308C11.919 10.7655 13.2609 10.3482 14.6633 10.1109C14.6759 10.1089 14.6889 10.1108 14.7005 10.1163C14.712 10.1219 14.7216 10.1308 14.7279 10.142C14.9148 10.4678 15.0833 10.8038 15.2328 11.1484C16.721 10.926 18.234 10.926 19.7223 11.1484C19.8565 10.8375 20.0479 10.4439 20.2197 10.142C20.2261 10.131 20.2358 10.1222 20.2474 10.1169C20.2589 10.1117 20.2719 10.1101 20.2844 10.1125ZM12.4549 18.2095C12.4549 19.2822 13.2527 20.1569 14.2198 20.1569C15.2025 20.1569 15.9847 19.283 15.9847 18.2095C16.0002 17.1434 15.2098 16.2622 14.2198 16.2622C13.2371 16.2622 12.4549 17.136 12.4549 18.2095ZM18.9802 18.2095C18.9802 19.2822 19.7771 20.1569 20.745 20.1569C21.7359 20.1569 22.5099 19.283 22.5099 18.2095C22.5255 17.1434 21.7351 16.2622 20.745 16.2622C19.7615 16.2622 18.9802 17.136 18.9802 18.2095Z" fill="black"/>
</svg>
