<svg width="35" height="35" viewBox="0 0 35 35" fill="none" xmlns="http://www.w3.org/2000/svg">
<path fill-rule="evenodd" clip-rule="evenodd" d="M17.5 35C27.165 35 35 27.165 35 17.5C35 7.83502 27.165 0 17.5 0C7.83502 0 0 7.83502 0 17.5C0 27.165 7.83502 35 17.5 35ZM20.2843 10.1125C21.6875 10.3498 23.0293 10.7671 24.2812 11.3317C24.2921 11.336 24.3011 11.3441 24.3066 11.3546C26.5247 14.5636 27.6195 18.185 27.2104 22.3529C27.2094 22.3617 27.2066 22.3702 27.2021 22.3779C27.1976 22.3855 27.1915 22.392 27.1842 22.3971C25.6964 23.4811 24.036 24.3057 22.2733 24.8362C22.2609 24.8399 22.2476 24.8397 22.2353 24.8356C22.223 24.8315 22.2123 24.8237 22.2046 24.8133C21.8339 24.3052 21.4968 23.7701 21.2023 23.208C21.1983 23.2002 21.196 23.1917 21.1955 23.183C21.195 23.1743 21.1964 23.1655 21.1996 23.1574C21.2028 23.1493 21.2077 23.1419 21.2139 23.1358C21.2201 23.1297 21.2276 23.125 21.2358 23.122C21.7701 22.924 22.279 22.6859 22.7683 22.4045C22.7771 22.3993 22.7844 22.392 22.7896 22.3833C22.7948 22.3746 22.7978 22.3648 22.7983 22.3547C22.7988 22.3445 22.7967 22.3344 22.7924 22.3253C22.788 22.3161 22.7814 22.3082 22.7732 22.3022C22.6693 22.2261 22.5671 22.1467 22.4689 22.0666C22.4599 22.0594 22.449 22.0549 22.4376 22.0536C22.4262 22.0523 22.4146 22.0542 22.4042 22.0592C19.2288 23.5025 15.7489 23.5025 12.5358 22.0592C12.5255 22.0545 12.514 22.0528 12.5027 22.0542C12.4915 22.0557 12.4808 22.0602 12.472 22.0674C12.3738 22.1467 12.2707 22.2261 12.1676 22.3022C12.1595 22.3083 12.153 22.3164 12.1488 22.3256C12.1446 22.3348 12.1427 22.345 12.1433 22.3551C12.144 22.3652 12.1472 22.3751 12.1525 22.3837C12.1579 22.3923 12.1653 22.3994 12.1742 22.4045C12.6652 22.6836 13.1773 22.9238 13.7059 23.1229C13.714 23.1257 13.7215 23.1304 13.7277 23.1364C13.734 23.1424 13.7389 23.1497 13.742 23.1578C13.7452 23.1658 13.7466 23.1745 13.7462 23.1831C13.7457 23.1918 13.7434 23.2003 13.7394 23.208C13.4505 23.7704 13.1149 24.3077 12.7363 24.8141C12.7283 24.8241 12.7175 24.8316 12.7052 24.8353C12.6929 24.8391 12.6798 24.8392 12.6675 24.8354C10.9079 24.3034 9.25021 23.4791 7.76402 22.3971C7.75696 22.3917 7.75107 22.385 7.74671 22.3772C7.74235 22.3695 7.73961 22.3609 7.73865 22.3521C7.39582 18.7471 8.09376 15.0962 10.64 11.3529C10.6463 11.3431 10.6554 11.3354 10.6662 11.3308C11.9189 10.7655 13.2607 10.3482 14.6632 10.1109C14.6758 10.1089 14.6888 10.1108 14.7003 10.1163C14.7119 10.1219 14.7215 10.1308 14.7278 10.142C14.9146 10.4678 15.0832 10.8038 15.2326 11.1484C16.7209 10.926 18.2339 10.926 19.7221 11.1484C19.8563 10.8375 20.0478 10.4439 20.2196 10.142C20.226 10.131 20.2357 10.1222 20.2472 10.1169C20.2588 10.1117 20.2718 10.1101 20.2843 10.1125ZM12.4548 18.2095C12.4548 19.2822 13.2526 20.1569 14.2197 20.1569C15.2024 20.1569 15.9846 19.283 15.9846 18.2095C16.0001 17.1434 15.2097 16.2622 14.2197 16.2622C13.237 16.2622 12.4548 17.136 12.4548 18.2095ZM18.98 18.2095C18.98 19.2822 19.777 20.1569 20.7449 20.1569C21.7358 20.1569 22.5098 19.283 22.5098 18.2095C22.5253 17.1434 21.7349 16.2622 20.7449 16.2622C19.7614 16.2622 18.98 17.136 18.98 18.2095Z" fill="white"/>
</svg>
