<svg width="35" height="35" viewBox="0 0 35 35" fill="none" xmlns="http://www.w3.org/2000/svg">
<circle cx="17.5" cy="17.5" r="17.5" fill="black"/>
<path d="M22.5877 14.3192L23.8763 15.813C24.0238 15.9808 24.1546 16.1188 24.2075 16.1973C24.5928 16.5752 24.8089 17.0859 24.8086 17.618C24.7724 18.2459 24.3578 18.6735 23.9737 19.1308L23.072 20.1754L22.6017 20.7167C22.5848 20.7353 22.5739 20.7584 22.5704 20.783C22.5668 20.8076 22.5708 20.8327 22.5817 20.8551C22.5927 20.8776 22.6102 20.8964 22.632 20.9093C22.6538 20.9222 22.6791 20.9286 22.7046 20.9277H27.4052C28.1232 20.9277 29.0277 21.5231 28.9748 22.427C28.9733 22.8378 28.8048 23.2314 28.5061 23.5219C28.2074 23.8124 27.8026 23.9762 27.3801 23.9776H20.019C19.5348 23.9776 18.2323 24.0291 17.8677 22.933C17.7902 22.704 17.7796 22.4586 17.8371 22.224C17.9431 21.8772 18.1107 21.5511 18.3325 21.2606C18.7026 20.7193 19.1034 20.1781 19.4986 19.6531C20.0079 18.9657 20.5311 18.3 21.046 17.5991C21.0642 17.5763 21.0742 17.5482 21.0742 17.5193C21.0742 17.4903 21.0642 17.4623 21.046 17.4394L19.1758 15.2745C19.1636 15.2588 19.1478 15.246 19.1297 15.2373C19.1116 15.2285 19.0916 15.224 19.0714 15.224C19.0512 15.224 19.0312 15.2285 19.0131 15.2373C18.995 15.246 18.9792 15.2588 18.967 15.2745C18.4661 15.9321 16.2731 18.844 15.8055 19.4339C15.338 20.0239 14.1858 20.0563 13.5485 19.4339L10.6235 16.5789C10.6048 16.5606 10.581 16.5482 10.555 16.5432C10.5291 16.5381 10.5022 16.5407 10.4777 16.5506C10.4533 16.5604 10.4324 16.5771 10.4177 16.5985C10.403 16.6199 10.3952 16.6451 10.3953 16.6709V22.1618C10.4022 22.5514 10.2835 22.9334 10.0559 23.2542C9.82837 23.5749 9.50328 23.8185 9.12623 23.9506C8.88531 24.0321 8.62785 24.0565 8.37526 24.0216C8.1227 23.9867 7.88239 23.8936 7.67433 23.7501C7.46627 23.6066 7.2965 23.4167 7.1792 23.1965C7.06192 22.9762 7.00047 22.7319 7 22.4838V12.6115C7.01678 12.2558 7.14842 11.9142 7.37624 11.6353C7.60406 11.3565 7.91645 11.1545 8.26906 11.0582C8.57152 10.9798 8.8899 10.9806 9.19194 11.0605C9.49398 11.1403 9.76895 11.2964 9.98897 11.5128L14.4864 15.8915C14.4998 15.9048 14.5161 15.915 14.5341 15.9215C14.5521 15.928 14.5713 15.9306 14.5905 15.929C14.6096 15.9275 14.6281 15.9219 14.6448 15.9126C14.6614 15.9033 14.6757 15.8905 14.6867 15.8752L17.8816 11.5751C18.0293 11.4005 18.2144 11.2594 18.424 11.1617C18.6336 11.064 18.8626 11.0121 19.095 11.0095H27.4052C27.6326 11.0099 27.8573 11.0574 28.0643 11.149C28.2713 11.2407 28.4558 11.3742 28.6054 11.5407C28.7551 11.7072 28.8664 11.9029 28.9321 12.1147C28.9977 12.3264 29.016 12.5493 28.9859 12.7685C28.9274 13.1487 28.729 13.4955 28.4275 13.7443C28.1261 13.9931 27.7421 14.1272 27.3467 14.1216H22.6935C22.6701 14.1222 22.6473 14.1288 22.6275 14.1409C22.6076 14.1529 22.5914 14.1699 22.5807 14.19C22.5699 14.2102 22.5648 14.2328 22.5661 14.2556C22.5673 14.2783 22.5748 14.3002 22.5877 14.3192Z" fill="white"/>
</svg>
