<svg width="36" height="35" viewBox="0 0 36 35" fill="none" xmlns="http://www.w3.org/2000/svg">
<path d="M17.7559 0C8.09186 0 0.25592 7.83594 0.25592 17.5C0.25592 27.1641 8.09186 35 17.7559 35C27.42 35 35.2559 27.1641 35.2559 17.5C35.2559 7.83594 27.42 0 17.7559 0ZM26.1661 13.1914C26.1778 13.375 26.1778 13.5664 26.1778 13.7539C26.1778 19.4883 21.8106 26.0938 13.8301 26.0938C11.3692 26.0938 9.08795 25.3789 7.16608 24.1484C7.51764 24.1875 7.85358 24.2031 8.21295 24.2031C10.2442 24.2031 12.1114 23.5156 13.5997 22.3516C11.6934 22.3125 10.0919 21.0625 9.54498 19.3438C10.213 19.4414 10.8145 19.4414 11.502 19.2656C10.5205 19.0662 9.63824 18.5331 9.0052 17.757C8.37216 16.9808 8.02735 16.0094 8.02936 15.0078V14.9531C8.60358 15.2773 9.27936 15.4766 9.98639 15.5039C9.39202 15.1078 8.90458 14.5711 8.56729 13.9415C8.23 13.3119 8.05328 12.6088 8.0528 11.8945C8.0528 11.0859 8.26373 10.3477 8.64264 9.70703C9.7321 11.0482 11.0916 12.1451 12.6327 12.9264C14.1739 13.7078 15.8622 14.1561 17.588 14.2422C16.9747 11.293 19.1778 8.90625 21.8262 8.90625C23.0762 8.90625 24.2012 9.42969 24.9942 10.2734C25.9747 10.0898 26.9122 9.72266 27.7481 9.23047C27.4239 10.2344 26.7442 11.082 25.8419 11.6172C26.7169 11.5234 27.5606 11.2812 28.3419 10.9414C27.752 11.8086 27.0137 12.5781 26.1661 13.1914Z" fill="white"/>
<path d="M17.7559 0C8.09186 0 0.25592 7.83594 0.25592 17.5C0.25592 27.1641 8.09186 35 17.7559 35C27.42 35 35.2559 27.1641 35.2559 17.5C35.2559 7.83594 27.42 0 17.7559 0ZM26.1661 13.1914C26.1778 13.375 26.1778 13.5664 26.1778 13.7539C26.1778 19.4883 21.8106 26.0938 13.8301 26.0938C11.3692 26.0938 9.08795 25.3789 7.16608 24.1484C7.51764 24.1875 7.85358 24.2031 8.21295 24.2031C10.2442 24.2031 12.1114 23.5156 13.5997 22.3516C11.6934 22.3125 10.0919 21.0625 9.54498 19.3438C10.213 19.4414 10.8145 19.4414 11.502 19.2656C10.5205 19.0662 9.63824 18.5331 9.0052 17.757C8.37216 16.9808 8.02735 16.0094 8.02936 15.0078V14.9531C8.60358 15.2773 9.27936 15.4766 9.98639 15.5039C9.39202 15.1078 8.90458 14.5711 8.56729 13.9415C8.23 13.3119 8.05328 12.6088 8.0528 11.8945C8.0528 11.0859 8.26373 10.3477 8.64264 9.70703C9.7321 11.0482 11.0916 12.1451 12.6327 12.9264C14.1739 13.7078 15.8622 14.1561 17.588 14.2422C16.9747 11.293 19.1778 8.90625 21.8262 8.90625C23.0762 8.90625 24.2012 9.42969 24.9942 10.2734C25.9747 10.0898 26.9122 9.72266 27.7481 9.23047C27.4239 10.2344 26.7442 11.082 25.8419 11.6172C26.7169 11.5234 27.5606 11.2812 28.3419 10.9414C27.752 11.8086 27.0137 12.5781 26.1661 13.1914Z" fill="url(#paint0_linear_62_178)"/>
<defs>
<linearGradient id="paint0_linear_62_178" x1="17.7513" y1="1.74006" x2="17.8286" y2="34.9998" gradientUnits="userSpaceOnUse">
<stop stop-color="#E8770E"/>
<stop offset="0.734631" stop-color="#FCA32B"/>
</linearGradient>
</defs>
</svg>
